<svg width="88" height="68" viewBox="0 0 88 68" fill="none" xmlns="http://www.w3.org/2000/svg">
<ellipse cx="44.2769" cy="33.8013" rx="43.4967" ry="33.8013" fill="#A55F0D"/>
<ellipse cx="44.2768" cy="28.3899" rx="42.3617" ry="28.3899" fill="#F7CFA1"/>
<path d="M22.9932 19.6416C22.9932 19.0893 23.4409 18.6416 23.9932 18.6416H64.5604C65.1127 18.6416 65.5604 19.0893 65.5604 19.6416V39.39C65.5604 39.9423 65.1127 40.39 64.5604 40.39H47.5252C47.3881 40.39 47.2524 40.4182 47.1266 40.4729L44.6754 41.5382C44.4211 41.6487 44.1324 41.6487 43.8782 41.5382L41.4269 40.4729C41.3012 40.4182 41.1655 40.39 41.0284 40.39H23.9932C23.4409 40.39 22.9932 39.9423 22.9932 39.39V19.6416Z" fill="#A55F0D"/>
<rect x="24.8643" y="34.8945" width="38.8601" height="3.25087" rx="1" fill="#5C3D19"/>
<path d="M44.2769 16.6587C51.8421 14.4241 56.1185 14.2806 63.0324 16.438C63.4457 16.567 63.7243 16.9518 63.7243 17.3848V36.9015C63.7243 37.5402 63.1318 38.0142 62.506 37.8863C55.456 36.4457 51.2685 36.6099 44.2769 38.1448V16.6587Z" fill="white"/>
<path d="M24.8643 17.3789C24.8643 16.9488 25.1392 16.5658 25.5489 16.4349C32.3205 14.271 37.1662 14.2761 44.2769 16.6588V38.1449C36.9241 36.5282 32.7263 36.519 26.0821 37.8854C25.4564 38.0141 24.8643 37.5399 24.8643 36.9011V17.3789Z" fill="white"/>
<rect x="42.7534" y="16.5127" width="3.08043" height="21.2068" fill="#EEEEEE"/>
</svg>
