<svg width="88" height="68" viewBox="0 0 88 68" fill="none" xmlns="http://www.w3.org/2000/svg">
<ellipse cx="44.2769" cy="34.106" rx="43.4967" ry="33.8013" fill="#D9C6B0"/>
<ellipse cx="44.2768" cy="28.6946" rx="42.3617" ry="28.3899" fill="#FBEEE0"/>
<path d="M22.9932 19.9463C22.9932 19.394 23.4409 18.9463 23.9932 18.9463H64.5604C65.1127 18.9463 65.5604 19.394 65.5604 19.9463V39.6947C65.5604 40.247 65.1127 40.6947 64.5604 40.6947H47.5252C47.3881 40.6947 47.2524 40.7229 47.1266 40.7776L44.6754 41.8429C44.4211 41.9534 44.1324 41.9534 43.8782 41.8429L41.4269 40.7776C41.3012 40.7229 41.1655 40.6947 41.0284 40.6947H23.9932C23.4409 40.6947 22.9932 40.247 22.9932 39.6947V19.9463Z" fill="#D9C6B0"/>
<rect x="24.8643" y="35.1992" width="38.8601" height="3.25087" rx="1" fill="#C1BBB3"/>
<path d="M44.2769 16.9634C51.8421 14.7287 56.1185 14.5853 63.0324 16.7427C63.4457 16.8717 63.7243 17.2565 63.7243 17.6895V37.2062C63.7243 37.8449 63.1318 38.3189 62.506 38.191C55.456 36.7504 51.2685 36.9146 44.2769 38.4495V16.9634Z" fill="white"/>
<path d="M24.8643 17.6836C24.8643 17.2535 25.1392 16.8705 25.5489 16.7396C32.3205 14.5757 37.1662 14.5808 44.2769 16.9635V38.4496C36.9241 36.8329 32.7263 36.8237 26.0821 38.1901C25.4564 38.3188 24.8643 37.8446 24.8643 37.2058V17.6836Z" fill="white"/>
<rect x="42.7534" y="16.8174" width="3.08043" height="21.2068" fill="#F6F6F6"/>
</svg>
