<svg width="86" height="61" viewBox="0 0 86 61" fill="none" xmlns="http://www.w3.org/2000/svg">
<ellipse cx="43.1054" cy="30.5271" rx="42.3617" ry="29.6091" fill="#A55F0D"/>
<ellipse cx="43.1054" cy="29.3079" rx="42.3617" ry="28.3899" fill="#F7CFA1"/>
<path d="M21.8218 20.5596C21.8218 20.0073 22.2695 19.5596 22.8218 19.5596H63.389C63.9413 19.5596 64.389 20.0073 64.389 20.5596V40.308C64.389 40.8603 63.9413 41.308 63.389 41.308H46.3538C46.2167 41.308 46.081 41.3362 45.9552 41.3909L43.504 42.4562C43.2497 42.5667 42.961 42.5666 42.7068 42.4562L40.2556 41.3909C40.1298 41.3362 39.9941 41.308 39.857 41.308H22.8218C22.2695 41.308 21.8218 40.8603 21.8218 40.308V20.5596Z" fill="#A55F0D"/>
<rect x="23.6929" y="35.8125" width="38.8601" height="3.25087" rx="1" fill="#5C3D19"/>
<path d="M43.1055 17.5767C50.6707 15.342 54.9471 15.1986 61.861 17.356C62.2743 17.485 62.553 17.8698 62.553 18.3028V37.8195C62.553 38.4582 61.9604 38.9322 61.3347 38.8043C54.2846 37.3636 50.0971 37.5279 43.1055 39.0628V17.5767Z" fill="white"/>
<path d="M23.6929 18.2969C23.6929 17.8668 23.9678 17.4838 24.3775 17.3529C31.1491 15.189 35.9948 15.1941 43.1055 17.5768V39.0629C35.7527 37.4462 31.5549 37.437 24.9108 38.8034C24.285 38.932 23.6929 38.4579 23.6929 37.819V18.2969Z" fill="white"/>
<rect x="41.582" y="17.4307" width="3.08043" height="21.2068" fill="#EEEEEE"/>
</svg>
