<svg width="23" height="23" viewBox="0 0 23 23" fill="none" xmlns="http://www.w3.org/2000/svg">
<path d="M0.836914 9.85342C0.836914 6.4931 0.836914 4.81295 1.49087 3.52947C2.06612 2.4005 2.984 1.48262 4.11297 0.907379C5.39644 0.253418 7.0766 0.253418 10.4369 0.253418H13.3047C16.665 0.253418 18.3452 0.253418 19.6287 0.907379C20.7576 1.48262 21.6755 2.4005 22.2508 3.52947C22.9047 4.81295 22.9047 6.4931 22.9047 9.85342V12.7212C22.9047 16.0815 22.9047 17.7617 22.2508 19.0452C21.6755 20.1741 20.7576 21.092 19.6287 21.6673C18.3452 22.3212 16.665 22.3212 13.3047 22.3212H10.4369C7.0766 22.3212 5.39644 22.3212 4.11297 21.6673C2.984 21.092 2.06612 20.1741 1.49087 19.0452C0.836914 17.7617 0.836914 16.0815 0.836914 12.7212V9.85342Z" fill="#F5F5F5"/>
<path d="M13.3047 21.3208V22.3208H10.4365V21.3208H13.3047ZM21.9043 12.7212V9.85303C21.9043 8.15657 21.9038 6.94393 21.8262 5.99365C21.7495 5.05534 21.6025 4.46105 21.3594 3.98389C20.88 3.0431 20.1156 2.27771 19.1748 1.79834C18.6975 1.55516 18.1027 1.40824 17.1641 1.33154C16.2137 1.2539 15.0013 1.25342 13.3047 1.25342H10.4365C8.74007 1.25342 7.52742 1.2539 6.57715 1.33154C5.63893 1.40823 5.04453 1.5553 4.56738 1.79834C3.62657 2.27771 2.8612 3.04308 2.38184 3.98389C2.1388 4.46103 1.99172 5.05543 1.91504 5.99365C1.8374 6.94393 1.83691 8.15657 1.83691 9.85303V12.7212C1.83691 14.4178 1.8374 15.6302 1.91504 16.5806C1.99173 17.5192 2.13866 18.114 2.38184 18.5913C2.86121 19.5321 3.6266 20.2965 4.56738 20.7759C5.04455 21.019 5.63884 21.166 6.57715 21.2427C7.52742 21.3203 8.74007 21.3208 10.4365 21.3208V22.3208C7.28645 22.3208 5.61279 22.3216 4.3584 21.7827L4.11328 21.6675C3.05486 21.1282 2.1815 20.2876 1.60254 19.2544L1.49121 19.0454C0.83725 17.7619 0.836914 16.0815 0.836914 12.7212V9.85303C0.836914 6.70279 0.837051 5.02932 1.37598 3.7749L1.49121 3.52979C2.03045 2.47147 2.87026 1.598 3.90332 1.01904L4.11328 0.907715C5.39669 0.253836 7.07657 0.253418 10.4365 0.253418H13.3047C16.665 0.253418 18.3454 0.253754 19.6289 0.907715C20.7577 1.48297 21.6758 2.40092 22.251 3.52979C22.9047 4.81316 22.9043 6.49326 22.9043 9.85303V12.7212C22.9043 16.0815 22.9049 17.7619 22.251 19.0454L22.1387 19.2544C21.5597 20.2875 20.6872 21.1282 19.6289 21.6675L19.3828 21.7827C18.1284 22.3214 16.4547 22.3208 13.3047 22.3208V21.3208C15.0013 21.3208 16.2137 21.3203 17.1641 21.2427C18.1027 21.166 18.6975 21.0191 19.1748 20.7759C20.1154 20.2965 20.88 19.5319 21.3594 18.5913C21.6026 18.114 21.7495 17.5192 21.8262 16.5806C21.9038 15.6302 21.9043 14.4178 21.9043 12.7212Z" fill="black"/>
</svg>
