<svg width="23" height="23" viewBox="0 0 23 23" fill="none" xmlns="http://www.w3.org/2000/svg">
<path d="M0.836914 9.77578C0.836914 6.41547 0.836914 4.73531 1.49087 3.45184C2.06612 2.32287 2.984 1.40498 4.11297 0.829742C5.39644 0.175781 7.0766 0.175781 10.4369 0.175781H13.3047C16.665 0.175781 18.3452 0.175781 19.6287 0.829742C20.7576 1.40498 21.6755 2.32287 22.2508 3.45184C22.9047 4.73531 22.9047 6.41547 22.9047 9.77578V12.6436C22.9047 16.0039 22.9047 17.6841 22.2508 18.9675C21.6755 20.0965 20.7576 21.0144 19.6287 21.5896C18.3452 22.2436 16.665 22.2436 13.3047 22.2436H10.4369C7.0766 22.2436 5.39644 22.2436 4.11297 21.5896C2.984 21.0144 2.06612 20.0965 1.49087 18.9675C0.836914 17.6841 0.836914 16.0039 0.836914 12.6436V9.77578Z" fill="#ED8F23"/>
<path d="M13.3047 21.2432V22.2432H10.4365V21.2432H13.3047ZM21.9043 12.6436V9.77539C21.9043 8.07894 21.9038 6.86629 21.8262 5.91602C21.7495 4.9777 21.6025 4.38342 21.3594 3.90625C20.88 2.96547 20.1156 2.20007 19.1748 1.7207C18.6975 1.47752 18.1027 1.3306 17.1641 1.25391C16.2137 1.17626 15.0013 1.17578 13.3047 1.17578H10.4365C8.74007 1.17578 7.52742 1.17627 6.57715 1.25391C5.63893 1.33059 5.04453 1.47766 4.56738 1.7207C3.62657 2.20007 2.8612 2.96544 2.38184 3.90625C2.1388 4.38339 1.99172 4.9778 1.91504 5.91602C1.8374 6.86629 1.83691 8.07894 1.83691 9.77539V12.6436C1.83691 14.3402 1.8374 15.5526 1.91504 16.5029C1.99173 17.4416 2.13866 18.0364 2.38184 18.5137C2.86121 19.4544 3.6266 20.2189 4.56738 20.6982C5.04455 20.9413 5.63884 21.0883 6.57715 21.165C7.52742 21.2427 8.74007 21.2432 10.4365 21.2432V22.2432C7.28645 22.2432 5.61279 22.2439 4.3584 21.7051L4.11328 21.5898C3.05486 21.0505 2.1815 20.21 1.60254 19.1768L1.49121 18.9678C0.83725 17.6843 0.836914 16.0039 0.836914 12.6436V9.77539C0.836914 6.62515 0.837051 4.95168 1.37598 3.69727L1.49121 3.45215C2.03045 2.39383 2.87026 1.52037 3.90332 0.941406L4.11328 0.830078C5.39669 0.176199 7.07657 0.175781 10.4365 0.175781H13.3047C16.665 0.175781 18.3454 0.176117 19.6289 0.830078C20.7577 1.40533 21.6758 2.32328 22.251 3.45215C22.9047 4.73553 22.9043 6.41563 22.9043 9.77539V12.6436C22.9043 16.0039 22.9049 17.6843 22.251 18.9678L22.1387 19.1768C21.5597 20.2099 20.6872 21.0506 19.6289 21.5898L19.3828 21.7051C18.1284 22.2438 16.4547 22.2432 13.3047 22.2432V21.2432C15.0013 21.2432 16.2137 21.2427 17.1641 21.165C18.1027 21.0883 18.6975 20.9414 19.1748 20.6982C20.1154 20.2189 20.88 19.4543 21.3594 18.5137C21.6026 18.0364 21.7495 17.4416 21.8262 16.5029C21.9038 15.5526 21.9043 14.3402 21.9043 12.6436Z" fill="black"/>
<path d="M15.9416 6.93664C16.5287 6.35222 17.4792 6.35442 18.0637 6.94152C18.6481 7.52864 18.6459 8.47915 18.0588 9.06359L10.0403 17.045L5.51877 13.1349C4.89224 12.5929 4.82355 11.6452 5.36545 11.0187C5.90739 10.3921 6.85511 10.3235 7.48166 10.8653L9.8967 12.9542L15.9416 6.93664Z" fill="black"/>
</svg>
