<svg width="60" height="31" viewBox="0 0 60 31" fill="none" xmlns="http://www.w3.org/2000/svg">
<path d="M9.88854 4.57033C10.6248 2.4945 13.0125 0.811707 15.2217 0.811707H50.2763C55.2468 0.811707 57.9333 4.59799 56.2767 9.26862L49.9071 27.2269C49.1709 29.3027 46.7831 30.9855 44.574 30.9855H9.51941C4.54884 30.9855 1.86235 27.1992 3.51896 22.5286L9.88854 4.57033Z" fill="white"/>
<path d="M10.8304 5.33111C11.5667 3.25528 13.9544 1.57248 16.1636 1.57248H49.795C54.2132 1.57248 56.6013 4.93807 55.1287 9.08973L48.9655 26.4661C48.2292 28.542 45.8415 30.2248 43.6324 30.2248H10.001C5.5827 30.2248 3.1947 26.8592 4.66724 22.7075L10.8304 5.33111Z" fill="#2A52A2"/>
<path d="M14.1852 8.1292C14.7374 6.57233 16.5282 5.31023 18.1851 5.31023H48.1219C50.3311 5.31023 51.5251 6.99303 50.7888 9.06886L45.6102 23.6694C45.058 25.2262 43.2672 26.4883 41.6103 26.4883H11.6735C9.46431 26.4883 8.27032 24.8055 9.00659 22.7297L14.1852 8.1292Z" fill="#AEC2EA"/>
<path d="M28.6541 9.5458C28.9954 9.11354 30.0324 8.89741 31.7651 8.89741C32.2097 8.89741 32.741 8.93343 33.3587 9.00548C33.9971 9.06311 34.3058 9.12075 34.2848 9.17838L27.653 16.6565L29.0972 23.8103C29.117 23.8824 28.7611 23.9544 28.0296 24.0265C27.3032 24.0841 26.6948 24.1129 26.2041 24.1129C24.2568 24.1129 23.2802 23.868 23.2745 23.3781L23.052 19.25L19.9383 23.5078C19.6382 23.9112 18.5834 24.1129 16.7741 24.1129C16.3294 24.1129 15.7879 24.0841 15.1496 24.0265C14.5112 23.9688 14.241 23.8896 14.3391 23.7887L20.6489 16.3106L19.5188 9.17838C19.499 9.10634 19.837 9.0415 20.5326 8.98386C21.2488 8.91182 21.8446 8.8758 22.3199 8.8758C24.2519 8.8758 25.2155 9.13515 25.2107 9.65386L25.4762 13.2848L28.6541 9.5458ZM31.1324 24.1345C29.7371 24.1345 29.0919 23.9904 29.1967 23.7023L34.2942 9.69709C34.4725 9.2072 34.7993 8.96225 35.2747 8.96225H39.3227C41.592 8.96225 43.0651 9.40171 43.7418 10.2806C44.4339 11.1596 44.4758 12.4347 43.8675 14.1061C43.364 15.4894 42.4272 16.7573 41.057 17.91C40.3719 18.4863 39.5064 18.9474 38.4605 19.2932C37.4146 19.639 36.2784 19.8119 35.0517 19.8119L33.6436 23.6807C33.5807 23.8536 33.2448 23.976 32.6359 24.0481C32.0476 24.1057 31.5464 24.1345 31.1324 24.1345ZM37.6319 12.7229L36.389 16.1377H36.688C37.2247 16.1377 37.7347 15.9792 38.2181 15.6623C38.7014 15.3453 39.048 14.8986 39.2578 14.3223C39.4676 13.7459 39.4867 13.3353 39.3152 13.0903C39.159 12.8454 38.7589 12.7229 38.1149 12.7229H37.6319Z" fill="#2A52A2"/>
</svg>
